<svg xmlns="http://www.w3.org/2000/svg" width="24" height="25" viewBox="0 0 24 25" fill="none">
  <g clip-path="url(#clip0_55_669)">
    <path d="M12 17.0188C13.933 17.0188 15.5 15.4518 15.5 13.5188C15.5 11.5858 13.933 10.0188 12 10.0188C10.067 10.0188 8.5 11.5858 8.5 13.5188C8.5 15.4518 10.067 17.0188 12 17.0188Z" fill="#4285F4"/>
    <path d="M20 9.5V14.5188V17.5C20 17.7113 19.9575 17.9113 19.8975 18.1025C19.7012 18.7175 19.2188 19.2 18.6038 19.3962C18.4125 19.4575 18.2125 19.4988 18.0012 19.4988H8.25L10.25 21.4988H16.5H18C18.5525 21.4988 19.0788 21.3862 19.5575 21.185C20.0363 20.9825 20.4675 20.69 20.8288 20.3275C21.01 20.1462 21.1737 19.9488 21.3175 19.735C21.605 19.31 21.8125 18.825 21.9188 18.305C21.9725 18.045 22 17.775 22 17.4988V15.9987V12.5188V11L21.25 8.625L19.8975 8.8975C19.9575 9.08875 20 9.28875 20 9.5Z" fill="#EA4335"/>
    <path d="M4 9.5C4 9.28875 4.0425 9.08875 4.1025 8.8975C4.29875 8.2825 4.78125 7.8 5.39625 7.60375C5.58875 7.5425 5.78875 7.5 6 7.5H18C18.2113 7.5 18.4113 7.5425 18.6025 7.6025L18.625 6.125L16.5 5.5L14.5 3.5H12.82H12H11.18H9.5L7.5 5.5H6C3.79125 5.5 2 7.29125 2 9.5V11V13.5L4 15.5V9.5Z" fill="#4285F4"/>
    <path d="M18 5.5H16.5L18.6038 7.60375C18.7575 7.6525 18.9025 7.72 19.0375 7.8025C19.3075 7.9675 19.5337 8.19375 19.6987 8.46375C19.7812 8.59875 19.8487 8.74375 19.8975 8.8975L22 11V9.5C22 7.29125 20.2088 5.5 18 5.5Z" fill="#34A853"/>
    <path d="M6 21.4999H10.9862L8.98625 19.4999H6C4.8975 19.4999 4 18.6024 4 17.4999V14.5137L2 12.5137V17.4999C2 19.7087 3.79125 21.4999 6 21.4999Z" fill="#FBBC04"/>
  </g>
  <defs>
    <clipPath id="clip0_55_669">
      <rect width="24" height="24" fill="white" transform="translate(0 0.5)"/>
    </clipPath>
  </defs>
</svg>