<svg xmlns="http://www.w3.org/2000/svg" width="24" height="25" viewBox="0 0 24 25" fill="none">
  <path d="M18.9557 2.11737C19.2486 2.41027 19.2486 2.88514 18.9557 3.17804L18.4053 3.72848C21.6943 7.55956 21.5243 13.3374 17.8951 16.9666C16.1821 18.6796 13.9905 19.6219 11.7508 19.7936V21.3223H13.5008C13.915 21.3223 14.2508 21.6581 14.2508 22.0723C14.2508 22.4865 13.915 22.8223 13.5008 22.8223H8.50079C8.08658 22.8223 7.75079 22.4865 7.75079 22.0723C7.75079 21.6581 8.08658 21.3223 8.50079 21.3223H10.2508V19.7936C8.24453 19.6397 6.27673 18.8674 4.65695 17.4768L4.1065 18.0273C3.81361 18.3202 3.33873 18.3202 3.04584 18.0273C2.75295 17.7344 2.75295 17.2595 3.04584 16.9666L3.75295 16.2595C4.24838 15.7641 5.01825 15.7894 5.50057 16.2216C7.06254 17.6214 9.03001 18.3217 10.9977 18.3223L11.0008 18.3223L11.004 18.3223C13.1143 18.3215 15.2244 17.516 16.8344 15.906C19.9473 12.7931 20.0526 7.81085 17.1501 4.5721C16.7179 4.08978 16.6925 3.31992 17.188 2.82448L17.8951 2.11738C18.188 1.82448 18.6629 1.82448 18.9557 2.11737Z" fill="#003A6F"/>
  <path fill-rule="evenodd" clip-rule="evenodd" d="M4.25079 10.0723C4.25079 6.3444 7.27287 3.32233 11.0008 3.32233C14.7287 3.32233 17.7508 6.3444 17.7508 10.0723C17.7508 13.8002 14.7287 16.8223 11.0008 16.8223C7.27287 16.8223 4.25079 13.8002 4.25079 10.0723ZM11.0008 4.82233C8.1013 4.82233 5.75079 7.17283 5.75079 10.0723C5.75079 10.4072 5.78214 10.7347 5.84205 11.0521C6.25337 10.6035 6.84424 10.3223 7.50079 10.3223C8.74343 10.3223 9.75079 11.3297 9.75079 12.5723C9.75079 13.4947 9.1958 14.2874 8.40155 14.6348C9.16791 15.0723 10.0552 15.3223 11.0008 15.3223C13.5442 15.3223 15.6651 13.5138 16.1478 11.1125C15.4792 12.1417 14.3195 12.8223 13.0008 12.8223C10.9297 12.8223 9.25079 11.1434 9.25079 9.07233C9.25079 7.00126 10.9297 5.32233 13.0008 5.32233C13.0873 5.32233 13.1731 5.32525 13.2581 5.33101C12.5743 5.00489 11.8089 4.82233 11.0008 4.82233ZM10.7508 9.07233C10.7508 7.82969 11.7582 6.82233 13.0008 6.82233C14.2434 6.82233 15.2508 7.82969 15.2508 9.07233C15.2508 10.315 14.2434 11.3223 13.0008 11.3223C11.7582 11.3223 10.7508 10.315 10.7508 9.07233ZM7.50079 11.8223C7.08658 11.8223 6.75079 12.1581 6.75079 12.5723C6.75079 12.9865 7.08658 13.3223 7.50079 13.3223C7.91501 13.3223 8.25079 12.9865 8.25079 12.5723C8.25079 12.1581 7.91501 11.8223 7.50079 11.8223Z" fill="#003A6F"/>
</svg>