<svg xmlns="http://www.w3.org/2000/svg" width="2642" height="1037" viewBox="0 0 2642 1037" fill="none">
  <g filter="url(#filter0_d_142_3206)">
    <path d="M178.919 604.966C224.429 573.3 215.336 528.371 178.919 479.293C123.793 407.103 152.74 374.4 224.429 365.494C296.117 356.588 265.106 199.744 244.566 157.193C224.026 114.643 125.479 19.491 244.566 1H2637.5V1028H30.709C-29.9518 992.389 29.501 913.212 77.83 902.327C126.159 891.442 181.48 889.043 154.754 837.511C128.028 785.98 195.599 776.334 178.919 727.671C150.268 640.927 133.409 636.632 178.919 604.966Z" fill="white"/>
    <path d="M178.919 604.966C224.429 573.3 215.336 528.371 178.919 479.293C123.793 407.103 152.74 374.4 224.429 365.494C296.117 356.588 265.106 199.744 244.566 157.193C224.026 114.643 125.479 19.491 244.566 1H2637.5V1028H30.709C-29.9518 992.389 29.501 913.212 77.83 902.327C126.159 891.442 181.48 889.043 154.754 837.511C128.028 785.98 195.599 776.334 178.919 727.671C150.268 640.927 133.409 636.632 178.919 604.966Z" stroke="black"/>
  </g>
  <defs>
    <filter id="filter0_d_142_3206" x="0.5" y="0.5" width="2641.5" height="1036" filterUnits="userSpaceOnUse" color-interpolation-filters="sRGB">
      <feFlood flood-opacity="0" result="BackgroundImageFix"/>
      <feColorMatrix in="SourceAlpha" type="matrix" values="0 0 0 0 0 0 0 0 0 0 0 0 0 0 0 0 0 0 127 0" result="hardAlpha"/>
      <feOffset dy="4"/>
      <feGaussianBlur stdDeviation="2"/>
      <feComposite in2="hardAlpha" operator="out"/>
      <feColorMatrix type="matrix" values="0 0 0 0 0 0 0 0 0 0 0 0 0 0 0 0 0 0 0.25 0"/>
      <feBlend mode="normal" in2="BackgroundImageFix" result="effect1_dropShadow_142_3206"/>
      <feBlend mode="normal" in="SourceGraphic" in2="effect1_dropShadow_142_3206" result="shape"/>
    </filter>
  </defs>
</svg>