<svg width="272" height="84" viewBox="0 0 272 84" fill="none" xmlns="http://www.w3.org/2000/svg">
<g clip-path="url(#clip0_22_16642)">
<path d="M34.0243 29.9727V38.9455H55.9943C55.411 43.9091 53.6612 47.7273 50.9393 50.2091C47.8285 53.2636 42.7734 56.7 34.0243 56.7C20.609 56.7 10.1101 46.0091 10.1101 32.8364C10.1101 19.6636 20.4146 8.97273 34.0243 8.97273C41.218 8.97273 46.6619 11.8364 50.5504 15.4636L56.9664 9.16364C51.5225 4.00909 44.1344 0 34.0243 0C15.554 0 0 14.7 0 32.8364C0 50.9727 15.554 65.6727 34.0243 65.6727C43.94 65.6727 51.5225 62.4273 57.3553 56.5091C63.3824 50.5909 65.3267 42.1909 65.3267 35.5091C65.3267 33.4091 65.1322 31.5 64.9378 29.9727H34.0243Z" fill="#4285F4"/>
<path d="M92.547 22.5273C80.6871 22.5273 70.7715 31.5001 70.7715 43.7183C70.7715 55.9364 80.4927 64.9092 92.547 64.9092C104.601 64.9092 114.323 56.1273 114.323 43.9092C114.323 31.5001 104.601 22.5273 92.547 22.5273ZM92.547 56.7001C85.9366 56.7001 80.2983 51.3546 80.2983 43.9092C80.2983 36.2728 85.9366 31.1183 92.547 31.1183C99.1575 31.1183 104.796 36.2728 104.796 43.9092C104.796 51.3546 99.1575 56.7001 92.547 56.7001Z" fill="#EA4335"/>
<path d="M198.896 27.3001H198.508C196.369 24.8183 192.286 22.5273 187.037 22.5273C176.149 22.5273 166.816 31.691 166.816 43.7183C166.816 55.5546 176.149 64.9092 187.037 64.9092C192.286 64.9092 196.369 62.6183 198.508 60.1364H198.896V63.191C198.896 71.2092 194.425 75.6001 187.425 75.6001C181.593 75.6001 178.093 71.591 176.538 67.9637L168.372 71.4001C170.705 76.9364 177.121 84.0001 187.62 84.0001C198.702 84.0001 208.229 77.5092 208.229 61.8546V23.6728H199.285V27.3001H198.896ZM188.009 56.7001C181.398 56.7001 176.538 51.1637 176.538 43.9092C176.538 36.4637 181.593 31.1183 188.009 31.1183C194.425 31.1183 199.48 36.6546 199.48 44.1001C199.674 51.3546 194.619 56.7001 188.009 56.7001Z" fill="#4285F4"/>
<path d="M140.957 22.5273C129.097 22.5273 119.182 31.5001 119.182 43.7183C119.182 55.9364 128.903 64.9092 140.957 64.9092C153.012 64.9092 162.733 56.1273 162.733 43.9092C162.733 31.5001 153.012 22.5273 140.957 22.5273ZM140.957 56.7001C134.347 56.7001 128.708 51.3546 128.708 43.9092C128.708 36.2728 134.347 31.1183 140.957 31.1183C147.568 31.1183 153.206 36.2728 153.206 43.9092C153.206 51.3546 147.568 56.7001 140.957 56.7001Z" fill="#FBBC05"/>
<path d="M215.422 0.95459H224.754V65.1H215.422V0.95459Z" fill="#34A853"/>
<path d="M253.529 56.7001C248.669 56.7001 245.363 54.6001 243.03 50.2092L272 38.5637L271.027 36.0819C269.278 31.3092 263.639 22.5273 252.557 22.5273C241.475 22.5273 232.143 31.1183 232.143 43.7183C232.143 55.5546 241.281 64.9092 253.529 64.9092C263.445 64.9092 269.083 58.991 271.611 55.5546L264.223 50.7819C261.695 54.4092 258.39 56.7001 253.529 56.7001ZM252.946 30.5455C256.835 30.5455 260.14 32.4546 261.112 35.1273L241.669 43.1455C241.475 34.3637 248.085 30.5455 252.946 30.5455Z" fill="#EA4335"/>
</g>
<defs>
<clipPath id="clip0_22_16642">
<rect width="272" height="84" fill="white"/>
</clipPath>
</defs>
</svg>
