<svg xmlns="http://www.w3.org/2000/svg" width="24" height="25" viewBox="0 0 24 25" fill="none">
  <path d="M12 18.467C11.5858 18.467 11.25 18.8028 11.25 19.217C11.25 19.6313 11.5858 19.967 12 19.967H18C18.9665 19.967 19.75 19.1835 19.75 18.217V6.21704C19.75 5.25054 18.9665 4.46704 18 4.46704H12C11.5858 4.46704 11.25 4.80283 11.25 5.21704C11.25 5.63126 11.5858 5.96704 12 5.96704L18 5.96704C18.1381 5.96704 18.25 6.07897 18.25 6.21704L18.25 18.217C18.25 18.3551 18.1381 18.467 18 18.467H12Z" fill="#003A6F"/>
  <path fill-rule="evenodd" clip-rule="evenodd" d="M3.25 13.3323C3.25 14.0226 3.80964 14.5823 4.5 14.5823H9.1126C9.11912 14.6557 9.12595 14.7291 9.13308 14.8025L9.18711 15.3583C9.26954 16.2065 10.1701 16.7144 10.9386 16.3461C12.5728 15.5629 14.1514 14.3876 15.4049 13.0788C15.8691 12.5942 15.8691 11.8298 15.4049 11.3452L15.3057 11.2416C14.0522 9.93282 12.5728 8.86108 10.9386 8.07788C10.1701 7.70962 9.26954 8.21753 9.18711 9.06564L9.13308 9.62152C9.12595 9.69491 9.11912 9.76832 9.1126 9.84174L4.5 9.84174C3.80964 9.84174 3.25 10.4014 3.25 11.0917V13.3323ZM10.5532 13.7477C10.5107 13.3708 10.1913 13.0823 9.80797 13.0823H4.75L4.75 11.3417H9.80797C10.2041 11.3417 10.5319 11.0337 10.5565 10.6384C10.5747 10.3476 10.5978 10.0569 10.626 9.76663L10.6417 9.60529C11.9466 10.2777 13.1342 11.1579 14.1577 12.212C13.7303 12.6521 13.2744 13.0619 12.7932 13.4389C12.122 13.9649 11.4018 14.427 10.6417 14.8187L10.626 14.6574C10.5978 14.3671 10.5747 14.0764 10.5565 13.7856C10.5557 13.7729 10.5546 13.7602 10.5532 13.7477Z" fill="#003A6F"/>
</svg>