<svg xmlns="http://www.w3.org/2000/svg" width="24" height="25" viewBox="0 0 24 25" fill="none">
  <path d="M12 15.5C13.66 15.5 15 14.19 15 12.53V5.51C15 3.85 13.66 2.5 12 2.5C10.34 2.5 9 3.84 9 5.51V12.53C9 14.19 10.34 15.5 12 15.5Z" fill="#4285F4"/>
  <path d="M11 18.5801H13V22.5001H11V18.5801Z" fill="#34A853"/>
  <path d="M7.05 17.37C5.78 16.04 5 14.54 5 12.5H7C7 13.95 7.56 14.92 8.47 15.88V16.2L7.32 17.38L7.05 17.37Z" fill="#FBBC05"/>
  <path d="M12.0008 17.43C11.343 17.432 10.6913 17.296 10.0837 17.0299C9.476 16.7638 8.92438 16.373 8.46078 15.88L7.05078 17.37C8.31078 18.71 10.0708 19.5 12.0008 19.5C15.8708 19.5 18.9908 16.58 18.9908 12.5H17.0008C17.0008 15.42 14.7608 17.43 12.0008 17.43Z" fill="#EA4335"/>
</svg>