<svg xmlns="http://www.w3.org/2000/svg" width="24" height="25" viewBox="0 0 24 25" fill="none">
  <path fill-rule="evenodd" clip-rule="evenodd" d="M7.75 7.64478C7.75 5.29757 9.65279 3.39478 12 3.39478C14.3472 3.39478 16.25 5.29757 16.25 7.64478C16.25 9.99199 14.3472 11.8948 12 11.8948C9.65279 11.8948 7.75 9.99199 7.75 7.64478ZM12 4.89478C10.4812 4.89478 9.25 6.12599 9.25 7.64478C9.25 9.16356 10.4812 10.3948 12 10.3948C13.5188 10.3948 14.75 9.16356 14.75 7.64478C14.75 6.12599 13.5188 4.89478 12 4.89478Z" fill="#003A6F"/>
  <path fill-rule="evenodd" clip-rule="evenodd" d="M8 14.8948C6.75736 14.8948 5.75 15.9021 5.75 17.1448V18.3331C5.75 18.3512 5.76311 18.3666 5.78097 18.3695C9.89972 19.0419 14.1003 19.0419 18.219 18.3695C18.2369 18.3666 18.25 18.3512 18.25 18.3331V17.1448C18.25 15.9021 17.2426 14.8948 16 14.8948H15.6591C15.6328 14.8948 15.6066 14.8989 15.5815 14.9071L14.716 15.1897C12.9512 15.766 11.0488 15.766 9.28398 15.1897L8.41847 14.9071C8.39342 14.8989 8.36722 14.8948 8.34087 14.8948H8ZM4.25 17.1448C4.25 15.0737 5.92893 13.3948 8 13.3948H8.34087C8.52536 13.3948 8.70869 13.4239 8.88407 13.4812L9.74959 13.7638C11.2119 14.2413 12.7881 14.2413 14.2504 13.7638L15.1159 13.4812C15.2913 13.4239 15.4746 13.3948 15.6591 13.3948H16C18.0711 13.3948 19.75 15.0737 19.75 17.1448V18.3331C19.75 19.0863 19.2041 19.7285 18.4607 19.8499C14.1819 20.5485 9.8181 20.5485 5.53927 19.8499C4.79588 19.7285 4.25 19.0863 4.25 18.3331V17.1448Z" fill="#003A6F"/>
</svg>