<svg width="20" height="21" viewBox="0 0 20 21" fill="none" xmlns="http://www.w3.org/2000/svg">
<g id="search_black" clip-path="url(#clip0_55_660)">
<path id="Vector" d="M12.9172 12.1667H12.2589L12.0255 11.9417C13.0255 10.775 13.5422 9.18337 13.2589 7.4917C12.8672 5.17503 10.9339 3.32503 8.60052 3.0417C5.07552 2.60837 2.10885 5.57503 2.54219 9.10003C2.82552 11.4334 4.67552 13.3667 6.99219 13.7584C8.68385 14.0417 10.2755 13.525 11.4422 12.525L11.6672 12.7584V13.4167L15.2089 16.9584C15.5505 17.3 16.1089 17.3 16.4505 16.9584C16.7922 16.6167 16.7922 16.0584 16.4505 15.7167L12.9172 12.1667ZM7.91719 12.1667C5.84219 12.1667 4.16719 10.4917 4.16719 8.4167C4.16719 6.3417 5.84219 4.6667 7.91719 4.6667C9.99219 4.6667 11.6672 6.3417 11.6672 8.4167C11.6672 10.4917 9.99219 12.1667 7.91719 12.1667Z" fill="#9AA0A6"/>
</g>
<defs>
<clipPath id="clip0_55_660">
<rect width="20" height="20" fill="white" transform="translate(0 0.5)"/>
</clipPath>
</defs>
</svg>
