<svg xmlns="http://www.w3.org/2000/svg" width="2697" height="1034" viewBox="0 0 2697 1034" fill="none">
  <g filter="url(#filter0_d_142_3204)">
    <path d="M265.788 330.906C345.767 298.707 331.651 194.072 265.788 128.193C200.576 67.6185 202.901 39.5162 283.994 1H2692V1025H7.88426C27.9565 1016.74 33.862 999.661 18.6633 970.844C-9.11349 918.178 -2.85566 840.048 116.954 845.142C172.333 838.848 224.729 802.123 174.166 728.88C123.604 655.637 122.75 624.575 174.166 603.178C203.792 580.213 211.499 560.801 183.287 495.362C151.258 403.299 172.256 368.561 265.788 330.906Z" fill="#55C2FF"/>
    <path d="M265.788 330.906C345.767 298.707 331.651 194.072 265.788 128.193C200.576 67.6185 202.901 39.5162 283.994 1H2692V1025H7.88426C27.9565 1016.74 33.862 999.661 18.6633 970.844C-9.11349 918.178 -2.85566 840.048 116.954 845.142C172.333 838.848 224.729 802.123 174.166 728.88C123.604 655.637 122.75 624.575 174.166 603.178C203.792 580.213 211.499 560.801 183.287 495.362C151.258 403.299 172.256 368.561 265.788 330.906Z" stroke="#079BFB"/>
  </g>
  <defs>
    <filter id="filter0_d_142_3204" x="0.5" y="0.5" width="2696" height="1033" filterUnits="userSpaceOnUse" color-interpolation-filters="sRGB">
      <feFlood flood-opacity="0" result="BackgroundImageFix"/>
      <feColorMatrix in="SourceAlpha" type="matrix" values="0 0 0 0 0 0 0 0 0 0 0 0 0 0 0 0 0 0 127 0" result="hardAlpha"/>
      <feOffset dy="4"/>
      <feGaussianBlur stdDeviation="2"/>
      <feComposite in2="hardAlpha" operator="out"/>
      <feColorMatrix type="matrix" values="0 0 0 0 0 0 0 0 0 0 0 0 0 0 0 0 0 0 0.25 0"/>
      <feBlend mode="normal" in2="BackgroundImageFix" result="effect1_dropShadow_142_3204"/>
      <feBlend mode="normal" in="SourceGraphic" in2="effect1_dropShadow_142_3204" result="shape"/>
    </filter>
  </defs>
</svg>