<svg xmlns="http://www.w3.org/2000/svg" width="16" height="17" viewBox="0 0 16 17" fill="none">
  <path d="M10.4507 11.7166L11.2007 10.9666L8.55065 8.29992V4.94992H7.55065V8.69992L10.4507 11.7166ZM8.00065 15.1666C7.08954 15.1666 6.22843 14.9916 5.41732 14.6416C4.60621 14.2916 3.89787 13.8138 3.29232 13.2083C2.68676 12.6027 2.20898 11.8944 1.85898 11.0833C1.50898 10.2721 1.33398 9.41103 1.33398 8.49992C1.33398 7.58881 1.50898 6.7277 1.85898 5.91658C2.20898 5.10547 2.68676 4.39714 3.29232 3.79159C3.89787 3.18603 4.60621 2.70825 5.41732 2.35825C6.22843 2.00825 7.08954 1.83325 8.00065 1.83325C8.91176 1.83325 9.77287 2.00825 10.584 2.35825C11.3951 2.70825 12.1034 3.18603 12.709 3.79159C13.3145 4.39714 13.7923 5.10547 14.1423 5.91658C14.4923 6.7277 14.6673 7.58881 14.6673 8.49992C14.6673 9.41103 14.4923 10.2721 14.1423 11.0833C13.7923 11.8944 13.3145 12.6027 12.709 13.2083C12.1034 13.8138 11.3951 14.2916 10.584 14.6416C9.77287 14.9916 8.91176 15.1666 8.00065 15.1666ZM8.00065 14.1666C9.55621 14.1666 10.8895 13.611 12.0007 12.4999C13.1118 11.3888 13.6673 10.0555 13.6673 8.49992C13.6673 6.94436 13.1118 5.61103 12.0007 4.49992C10.8895 3.38881 9.55621 2.83325 8.00065 2.83325C6.4451 2.83325 5.11176 3.38881 4.00065 4.49992C2.88954 5.61103 2.33398 6.94436 2.33398 8.49992C2.33398 10.0555 2.88954 11.3888 4.00065 12.4999C5.11176 13.611 6.4451 14.1666 8.00065 14.1666Z" fill="#9AA0A6"/>
</svg>